<mxfile host="app.diagrams.net" modified="2023-02-05T13:43:01.530Z" agent="5.0 (Windows NT 10.0; Win64; x64) AppleWebKit/537.36 (KHTML, like Gecko) Chrome/109.0.0.0 Safari/537.36" etag="XXnQcB2MYv-igKw-fgge" version="20.8.16" type="github">
  <diagram name="Page-1" id="9f46799a-70d6-7492-0946-bef42562c5a5">
    <mxGraphModel dx="2787" dy="1672" grid="1" gridSize="10" guides="1" tooltips="1" connect="1" arrows="1" fold="1" page="1" pageScale="1" pageWidth="1100" pageHeight="850" background="none" math="0" shadow="0">
      <root>
        <mxCell id="0" />
        <mxCell id="1" parent="0" />
        <object label="User" id="TUfsJCi0jF2Ck-yVqTo3-19">
          <mxCell style="shape=table;startSize=30;container=1;collapsible=0;childLayout=tableLayout;strokeColor=#6c8ebf;fontSize=16;columnLines=1;points=[[0,0,0,0,0],[0,0.25,0,0,0],[0,0.5,0,0,0],[0,0.75,0,0,0],[0,1,0,0,0],[0.25,0,0,0,0],[0.25,1,0,0,0],[0.5,0,0,0,0],[0.5,1,0,0,0],[0.75,0,0,0,0],[0.75,1,0,0,0],[1,0,0,0,0],[1,0.25,0,0,0],[1,0.5,0,0,0],[1,0.75,0,0,0],[1,1,0,0,0]];swimlaneLine=1;shadow=0;align=center;flipH=0;fillColor=#dae8fc;" parent="1" vertex="1">
            <mxGeometry x="40" y="-160" width="130" height="300" as="geometry" />
          </mxCell>
        </object>
        <mxCell id="TUfsJCi0jF2Ck-yVqTo3-20" value="" style="shape=tableRow;horizontal=0;startSize=0;swimlaneHead=0;swimlaneBody=0;strokeColor=inherit;top=0;left=0;bottom=0;right=0;collapsible=0;dropTarget=0;fillColor=none;points=[[0,0.5],[1,0.5]];portConstraint=eastwest;fontSize=16;" parent="TUfsJCi0jF2Ck-yVqTo3-19" vertex="1">
          <mxGeometry y="30" width="130" height="23" as="geometry" />
        </mxCell>
        <mxCell id="TUfsJCi0jF2Ck-yVqTo3-21" value="user_id" style="shape=partialRectangle;html=1;whiteSpace=wrap;connectable=0;strokeColor=inherit;overflow=hidden;fillColor=none;top=0;left=0;bottom=0;right=0;pointerEvents=1;fontSize=16;align=left;" parent="TUfsJCi0jF2Ck-yVqTo3-20" vertex="1">
          <mxGeometry width="130" height="23" as="geometry">
            <mxRectangle width="130" height="23" as="alternateBounds" />
          </mxGeometry>
        </mxCell>
        <mxCell id="TUfsJCi0jF2Ck-yVqTo3-24" value="" style="shape=tableRow;horizontal=0;startSize=0;swimlaneHead=0;swimlaneBody=0;strokeColor=inherit;top=0;left=0;bottom=0;right=0;collapsible=0;dropTarget=0;fillColor=none;points=[[0,0.5],[1,0.5]];portConstraint=eastwest;fontSize=16;" parent="TUfsJCi0jF2Ck-yVqTo3-19" vertex="1">
          <mxGeometry y="53" width="130" height="22" as="geometry" />
        </mxCell>
        <mxCell id="TUfsJCi0jF2Ck-yVqTo3-25" value="name" style="shape=partialRectangle;html=1;whiteSpace=wrap;connectable=0;strokeColor=inherit;overflow=hidden;fillColor=none;top=0;left=0;bottom=0;right=0;pointerEvents=1;fontSize=16;align=left;" parent="TUfsJCi0jF2Ck-yVqTo3-24" vertex="1">
          <mxGeometry width="130" height="22" as="geometry">
            <mxRectangle width="130" height="22" as="alternateBounds" />
          </mxGeometry>
        </mxCell>
        <mxCell id="32F2rg8Qppw3--IaGYli-2" style="shape=tableRow;horizontal=0;startSize=0;swimlaneHead=0;swimlaneBody=0;strokeColor=inherit;top=0;left=0;bottom=0;right=0;collapsible=0;dropTarget=0;fillColor=none;points=[[0,0.5],[1,0.5]];portConstraint=eastwest;fontSize=16;" vertex="1" parent="TUfsJCi0jF2Ck-yVqTo3-19">
          <mxGeometry y="75" width="130" height="23" as="geometry" />
        </mxCell>
        <mxCell id="32F2rg8Qppw3--IaGYli-3" value="surname" style="shape=partialRectangle;html=1;whiteSpace=wrap;connectable=0;strokeColor=inherit;overflow=hidden;fillColor=none;top=0;left=0;bottom=0;right=0;pointerEvents=1;fontSize=16;align=left;" vertex="1" parent="32F2rg8Qppw3--IaGYli-2">
          <mxGeometry width="130" height="23" as="geometry">
            <mxRectangle width="130" height="23" as="alternateBounds" />
          </mxGeometry>
        </mxCell>
        <mxCell id="32F2rg8Qppw3--IaGYli-4" style="shape=tableRow;horizontal=0;startSize=0;swimlaneHead=0;swimlaneBody=0;strokeColor=inherit;top=0;left=0;bottom=0;right=0;collapsible=0;dropTarget=0;fillColor=none;points=[[0,0.5],[1,0.5]];portConstraint=eastwest;fontSize=16;" vertex="1" parent="TUfsJCi0jF2Ck-yVqTo3-19">
          <mxGeometry y="98" width="130" height="22" as="geometry" />
        </mxCell>
        <mxCell id="32F2rg8Qppw3--IaGYli-5" value="age" style="shape=partialRectangle;html=1;whiteSpace=wrap;connectable=0;strokeColor=inherit;overflow=hidden;fillColor=none;top=0;left=0;bottom=0;right=0;pointerEvents=1;fontSize=16;align=left;" vertex="1" parent="32F2rg8Qppw3--IaGYli-4">
          <mxGeometry width="130" height="22" as="geometry">
            <mxRectangle width="130" height="22" as="alternateBounds" />
          </mxGeometry>
        </mxCell>
        <mxCell id="32F2rg8Qppw3--IaGYli-6" style="shape=tableRow;horizontal=0;startSize=0;swimlaneHead=0;swimlaneBody=0;strokeColor=inherit;top=0;left=0;bottom=0;right=0;collapsible=0;dropTarget=0;fillColor=none;points=[[0,0.5],[1,0.5]];portConstraint=eastwest;fontSize=16;" vertex="1" parent="TUfsJCi0jF2Ck-yVqTo3-19">
          <mxGeometry y="120" width="130" height="23" as="geometry" />
        </mxCell>
        <mxCell id="32F2rg8Qppw3--IaGYli-7" value="sity_id" style="shape=partialRectangle;html=1;whiteSpace=wrap;connectable=0;strokeColor=inherit;overflow=hidden;fillColor=none;top=0;left=0;bottom=0;right=0;pointerEvents=1;fontSize=16;align=left;" vertex="1" parent="32F2rg8Qppw3--IaGYli-6">
          <mxGeometry width="130" height="23" as="geometry">
            <mxRectangle width="130" height="23" as="alternateBounds" />
          </mxGeometry>
        </mxCell>
        <mxCell id="32F2rg8Qppw3--IaGYli-8" style="shape=tableRow;horizontal=0;startSize=0;swimlaneHead=0;swimlaneBody=0;strokeColor=inherit;top=0;left=0;bottom=0;right=0;collapsible=0;dropTarget=0;fillColor=none;points=[[0,0.5],[1,0.5]];portConstraint=eastwest;fontSize=16;" vertex="1" parent="TUfsJCi0jF2Ck-yVqTo3-19">
          <mxGeometry y="143" width="130" height="22" as="geometry" />
        </mxCell>
        <mxCell id="32F2rg8Qppw3--IaGYli-9" value="univer_id" style="shape=partialRectangle;html=1;whiteSpace=wrap;connectable=0;strokeColor=inherit;overflow=hidden;fillColor=none;top=0;left=0;bottom=0;right=0;pointerEvents=1;fontSize=16;align=left;" vertex="1" parent="32F2rg8Qppw3--IaGYli-8">
          <mxGeometry width="130" height="22" as="geometry">
            <mxRectangle width="130" height="22" as="alternateBounds" />
          </mxGeometry>
        </mxCell>
        <mxCell id="32F2rg8Qppw3--IaGYli-10" style="shape=tableRow;horizontal=0;startSize=0;swimlaneHead=0;swimlaneBody=0;strokeColor=inherit;top=0;left=0;bottom=0;right=0;collapsible=0;dropTarget=0;fillColor=none;points=[[0,0.5],[1,0.5]];portConstraint=eastwest;fontSize=16;" vertex="1" parent="TUfsJCi0jF2Ck-yVqTo3-19">
          <mxGeometry y="165" width="130" height="23" as="geometry" />
        </mxCell>
        <mxCell id="32F2rg8Qppw3--IaGYli-11" value="school_id" style="shape=partialRectangle;html=1;whiteSpace=wrap;connectable=0;strokeColor=inherit;overflow=hidden;fillColor=none;top=0;left=0;bottom=0;right=0;pointerEvents=1;fontSize=16;align=left;" vertex="1" parent="32F2rg8Qppw3--IaGYli-10">
          <mxGeometry width="130" height="23" as="geometry">
            <mxRectangle width="130" height="23" as="alternateBounds" />
          </mxGeometry>
        </mxCell>
        <mxCell id="32F2rg8Qppw3--IaGYli-101" style="shape=tableRow;horizontal=0;startSize=0;swimlaneHead=0;swimlaneBody=0;strokeColor=inherit;top=0;left=0;bottom=0;right=0;collapsible=0;dropTarget=0;fillColor=none;points=[[0,0.5],[1,0.5]];portConstraint=eastwest;fontSize=16;" vertex="1" parent="TUfsJCi0jF2Ck-yVqTo3-19">
          <mxGeometry y="188" width="130" height="20" as="geometry" />
        </mxCell>
        <mxCell id="32F2rg8Qppw3--IaGYli-102" value="shool_year_end" style="shape=partialRectangle;html=1;whiteSpace=wrap;connectable=0;strokeColor=inherit;overflow=hidden;fillColor=none;top=0;left=0;bottom=0;right=0;pointerEvents=1;fontSize=16;align=left;" vertex="1" parent="32F2rg8Qppw3--IaGYli-101">
          <mxGeometry width="130" height="20" as="geometry">
            <mxRectangle width="130" height="20" as="alternateBounds" />
          </mxGeometry>
        </mxCell>
        <mxCell id="32F2rg8Qppw3--IaGYli-12" style="shape=tableRow;horizontal=0;startSize=0;swimlaneHead=0;swimlaneBody=0;strokeColor=inherit;top=0;left=0;bottom=0;right=0;collapsible=0;dropTarget=0;fillColor=none;points=[[0,0.5],[1,0.5]];portConstraint=eastwest;fontSize=16;" vertex="1" parent="TUfsJCi0jF2Ck-yVqTo3-19">
          <mxGeometry y="208" width="130" height="30" as="geometry" />
        </mxCell>
        <mxCell id="32F2rg8Qppw3--IaGYli-13" value="univer_year_end" style="shape=partialRectangle;html=1;whiteSpace=wrap;connectable=0;strokeColor=inherit;overflow=hidden;fillColor=none;top=0;left=0;bottom=0;right=0;pointerEvents=1;fontSize=16;align=left;" vertex="1" parent="32F2rg8Qppw3--IaGYli-12">
          <mxGeometry width="130" height="30" as="geometry">
            <mxRectangle width="130" height="30" as="alternateBounds" />
          </mxGeometry>
        </mxCell>
        <mxCell id="32F2rg8Qppw3--IaGYli-103" style="shape=tableRow;horizontal=0;startSize=0;swimlaneHead=0;swimlaneBody=0;strokeColor=inherit;top=0;left=0;bottom=0;right=0;collapsible=0;dropTarget=0;fillColor=none;points=[[0,0.5],[1,0.5]];portConstraint=eastwest;fontSize=16;" vertex="1" parent="TUfsJCi0jF2Ck-yVqTo3-19">
          <mxGeometry y="238" width="130" height="32" as="geometry" />
        </mxCell>
        <mxCell id="32F2rg8Qppw3--IaGYli-104" value="family_status_id" style="shape=partialRectangle;html=1;whiteSpace=wrap;connectable=0;strokeColor=inherit;overflow=hidden;fillColor=none;top=0;left=0;bottom=0;right=0;pointerEvents=1;fontSize=16;align=left;" vertex="1" parent="32F2rg8Qppw3--IaGYli-103">
          <mxGeometry width="130" height="32" as="geometry">
            <mxRectangle width="130" height="32" as="alternateBounds" />
          </mxGeometry>
        </mxCell>
        <mxCell id="32F2rg8Qppw3--IaGYli-119" style="shape=tableRow;horizontal=0;startSize=0;swimlaneHead=0;swimlaneBody=0;strokeColor=inherit;top=0;left=0;bottom=0;right=0;collapsible=0;dropTarget=0;fillColor=none;points=[[0,0.5],[1,0.5]];portConstraint=eastwest;fontSize=16;" vertex="1" parent="TUfsJCi0jF2Ck-yVqTo3-19">
          <mxGeometry y="270" width="130" height="30" as="geometry" />
        </mxCell>
        <mxCell id="32F2rg8Qppw3--IaGYli-120" value="partner_id" style="shape=partialRectangle;html=1;whiteSpace=wrap;connectable=0;strokeColor=inherit;overflow=hidden;fillColor=none;top=0;left=0;bottom=0;right=0;pointerEvents=1;fontSize=16;align=left;" vertex="1" parent="32F2rg8Qppw3--IaGYli-119">
          <mxGeometry width="130" height="30" as="geometry">
            <mxRectangle width="130" height="30" as="alternateBounds" />
          </mxGeometry>
        </mxCell>
        <mxCell id="32F2rg8Qppw3--IaGYli-1" value="&lt;table&gt;&lt;tbody&gt;&lt;tr&gt;&lt;td&gt;&lt;br&gt;&lt;/td&gt;&lt;/tr&gt;&lt;/tbody&gt;&lt;/table&gt;" style="text;html=1;align=center;verticalAlign=middle;resizable=0;points=[];autosize=1;strokeColor=none;fillColor=none;flipV=0;" vertex="1" parent="1">
          <mxGeometry x="375" y="275" width="30" height="30" as="geometry" />
        </mxCell>
        <object label="univer" id="32F2rg8Qppw3--IaGYli-14">
          <mxCell style="shape=table;startSize=30;container=1;collapsible=0;childLayout=tableLayout;strokeColor=#6c8ebf;fontSize=16;columnLines=1;points=[[0,0,0,0,0],[0,0.25,0,0,0],[0,0.5,0,0,0],[0,0.75,0,0,0],[0,1,0,0,0],[0.25,0,0,0,0],[0.25,1,0,0,0],[0.5,0,0,0,0],[0.5,1,0,0,0],[0.75,0,0,0,0],[0.75,1,0,0,0],[1,0,0,0,0],[1,0.25,0,0,0],[1,0.5,0,0,0],[1,0.75,0,0,0],[1,1,0,0,0]];swimlaneLine=1;shadow=0;fillColor=#dae8fc;" vertex="1" parent="1">
            <mxGeometry x="790" y="10" width="130" height="98" as="geometry" />
          </mxCell>
        </object>
        <mxCell id="32F2rg8Qppw3--IaGYli-15" value="" style="shape=tableRow;horizontal=0;startSize=0;swimlaneHead=0;swimlaneBody=0;strokeColor=inherit;top=0;left=0;bottom=0;right=0;collapsible=0;dropTarget=0;fillColor=none;points=[[0,0.5],[1,0.5]];portConstraint=eastwest;fontSize=16;" vertex="1" parent="32F2rg8Qppw3--IaGYli-14">
          <mxGeometry y="30" width="130" height="23" as="geometry" />
        </mxCell>
        <mxCell id="32F2rg8Qppw3--IaGYli-16" value="univer_id" style="shape=partialRectangle;html=1;whiteSpace=wrap;connectable=0;strokeColor=inherit;overflow=hidden;fillColor=none;top=0;left=0;bottom=0;right=0;pointerEvents=1;fontSize=16;align=left;" vertex="1" parent="32F2rg8Qppw3--IaGYli-15">
          <mxGeometry width="130" height="23" as="geometry">
            <mxRectangle width="130" height="23" as="alternateBounds" />
          </mxGeometry>
        </mxCell>
        <mxCell id="32F2rg8Qppw3--IaGYli-17" value="" style="shape=tableRow;horizontal=0;startSize=0;swimlaneHead=0;swimlaneBody=0;strokeColor=inherit;top=0;left=0;bottom=0;right=0;collapsible=0;dropTarget=0;fillColor=none;points=[[0,0.5],[1,0.5]];portConstraint=eastwest;fontSize=16;" vertex="1" parent="32F2rg8Qppw3--IaGYli-14">
          <mxGeometry y="53" width="130" height="22" as="geometry" />
        </mxCell>
        <mxCell id="32F2rg8Qppw3--IaGYli-18" value="name" style="shape=partialRectangle;html=1;whiteSpace=wrap;connectable=0;strokeColor=inherit;overflow=hidden;fillColor=none;top=0;left=0;bottom=0;right=0;pointerEvents=1;fontSize=16;align=left;" vertex="1" parent="32F2rg8Qppw3--IaGYli-17">
          <mxGeometry width="130" height="22" as="geometry">
            <mxRectangle width="130" height="22" as="alternateBounds" />
          </mxGeometry>
        </mxCell>
        <mxCell id="32F2rg8Qppw3--IaGYli-19" style="shape=tableRow;horizontal=0;startSize=0;swimlaneHead=0;swimlaneBody=0;strokeColor=inherit;top=0;left=0;bottom=0;right=0;collapsible=0;dropTarget=0;fillColor=none;points=[[0,0.5],[1,0.5]];portConstraint=eastwest;fontSize=16;" vertex="1" parent="32F2rg8Qppw3--IaGYli-14">
          <mxGeometry y="75" width="130" height="23" as="geometry" />
        </mxCell>
        <mxCell id="32F2rg8Qppw3--IaGYli-20" value="sity_id" style="shape=partialRectangle;html=1;whiteSpace=wrap;connectable=0;strokeColor=inherit;overflow=hidden;fillColor=none;top=0;left=0;bottom=0;right=0;pointerEvents=1;fontSize=16;align=left;" vertex="1" parent="32F2rg8Qppw3--IaGYli-19">
          <mxGeometry width="130" height="23" as="geometry">
            <mxRectangle width="130" height="23" as="alternateBounds" />
          </mxGeometry>
        </mxCell>
        <object label="sity" id="32F2rg8Qppw3--IaGYli-65">
          <mxCell style="shape=table;startSize=30;container=1;collapsible=0;childLayout=tableLayout;strokeColor=#6c8ebf;fontSize=16;columnLines=1;points=[[0,0,0,0,0],[0,0.25,0,0,0],[0,0.5,0,0,0],[0,0.75,0,0,0],[0,1,0,0,0],[0.25,0,0,0,0],[0.25,1,0,0,0],[0.5,0,0,0,0],[0.5,1,0,0,0],[0.75,0,0,0,0],[0.75,1,0,0,0],[1,0,0,0,0],[1,0.25,0,0,0],[1,0.5,0,0,0],[1,0.75,0,0,0],[1,1,0,0,0]];swimlaneLine=1;shadow=0;flipH=0;fillColor=#dae8fc;" vertex="1" parent="1">
            <mxGeometry x="540" y="-160" width="130" height="121" as="geometry" />
          </mxCell>
        </object>
        <mxCell id="32F2rg8Qppw3--IaGYli-66" value="" style="shape=tableRow;horizontal=0;startSize=0;swimlaneHead=0;swimlaneBody=0;strokeColor=inherit;top=0;left=0;bottom=0;right=0;collapsible=0;dropTarget=0;fillColor=none;points=[[0,0.5],[1,0.5]];portConstraint=eastwest;fontSize=16;" vertex="1" parent="32F2rg8Qppw3--IaGYli-65">
          <mxGeometry y="30" width="130" height="23" as="geometry" />
        </mxCell>
        <mxCell id="32F2rg8Qppw3--IaGYli-67" value="sity_id" style="shape=partialRectangle;html=1;whiteSpace=wrap;connectable=0;strokeColor=inherit;overflow=hidden;fillColor=none;top=0;left=0;bottom=0;right=0;pointerEvents=1;fontSize=16;align=left;" vertex="1" parent="32F2rg8Qppw3--IaGYli-66">
          <mxGeometry width="130" height="23" as="geometry">
            <mxRectangle width="130" height="23" as="alternateBounds" />
          </mxGeometry>
        </mxCell>
        <mxCell id="32F2rg8Qppw3--IaGYli-68" value="" style="shape=tableRow;horizontal=0;startSize=0;swimlaneHead=0;swimlaneBody=0;strokeColor=inherit;top=0;left=0;bottom=0;right=0;collapsible=0;dropTarget=0;fillColor=none;points=[[0,0.5],[1,0.5]];portConstraint=eastwest;fontSize=16;" vertex="1" parent="32F2rg8Qppw3--IaGYli-65">
          <mxGeometry y="53" width="130" height="22" as="geometry" />
        </mxCell>
        <mxCell id="32F2rg8Qppw3--IaGYli-69" value="name" style="shape=partialRectangle;html=1;whiteSpace=wrap;connectable=0;strokeColor=inherit;overflow=hidden;fillColor=none;top=0;left=0;bottom=0;right=0;pointerEvents=1;fontSize=16;align=left;" vertex="1" parent="32F2rg8Qppw3--IaGYli-68">
          <mxGeometry width="130" height="22" as="geometry">
            <mxRectangle width="130" height="22" as="alternateBounds" />
          </mxGeometry>
        </mxCell>
        <mxCell id="32F2rg8Qppw3--IaGYli-70" style="shape=tableRow;horizontal=0;startSize=0;swimlaneHead=0;swimlaneBody=0;strokeColor=inherit;top=0;left=0;bottom=0;right=0;collapsible=0;dropTarget=0;fillColor=none;points=[[0,0.5],[1,0.5]];portConstraint=eastwest;fontSize=16;" vertex="1" parent="32F2rg8Qppw3--IaGYli-65">
          <mxGeometry y="75" width="130" height="23" as="geometry" />
        </mxCell>
        <mxCell id="32F2rg8Qppw3--IaGYli-71" value="region" style="shape=partialRectangle;html=1;whiteSpace=wrap;connectable=0;strokeColor=inherit;overflow=hidden;fillColor=none;top=0;left=0;bottom=0;right=0;pointerEvents=1;fontSize=16;align=left;" vertex="1" parent="32F2rg8Qppw3--IaGYli-70">
          <mxGeometry width="130" height="23" as="geometry">
            <mxRectangle width="130" height="23" as="alternateBounds" />
          </mxGeometry>
        </mxCell>
        <mxCell id="32F2rg8Qppw3--IaGYli-72" style="shape=tableRow;horizontal=0;startSize=0;swimlaneHead=0;swimlaneBody=0;strokeColor=inherit;top=0;left=0;bottom=0;right=0;collapsible=0;dropTarget=0;fillColor=none;points=[[0,0.5],[1,0.5]];portConstraint=eastwest;fontSize=16;" vertex="1" parent="32F2rg8Qppw3--IaGYli-65">
          <mxGeometry y="98" width="130" height="23" as="geometry" />
        </mxCell>
        <mxCell id="32F2rg8Qppw3--IaGYli-73" value="contry" style="shape=partialRectangle;html=1;whiteSpace=wrap;connectable=0;strokeColor=inherit;overflow=hidden;fillColor=none;top=0;left=0;bottom=0;right=0;pointerEvents=1;fontSize=16;align=left;" vertex="1" parent="32F2rg8Qppw3--IaGYli-72">
          <mxGeometry width="130" height="23" as="geometry">
            <mxRectangle width="130" height="23" as="alternateBounds" />
          </mxGeometry>
        </mxCell>
        <object label="friends" id="32F2rg8Qppw3--IaGYli-76">
          <mxCell style="shape=table;startSize=30;container=1;collapsible=0;childLayout=tableLayout;strokeColor=#6c8ebf;fontSize=16;columnLines=1;points=[[0,0,0,0,0],[0,0.25,0,0,0],[0,0.5,0,0,0],[0,0.75,0,0,0],[0,1,0,0,0],[0.25,0,0,0,0],[0.25,1,0,0,0],[0.5,0,0,0,0],[0.5,1,0,0,0],[0.75,0,0,0,0],[0.75,1,0,0,0],[1,0,0,0,0],[1,0.25,0,0,0],[1,0.5,0,0,0],[1,0.75,0,0,0],[1,1,0,0,0]];swimlaneLine=1;shadow=0;flipV=0;flipH=0;fillColor=#dae8fc;" vertex="1" parent="1">
            <mxGeometry x="290" y="-160" width="130" height="98" as="geometry" />
          </mxCell>
        </object>
        <mxCell id="32F2rg8Qppw3--IaGYli-77" value="" style="shape=tableRow;horizontal=0;startSize=0;swimlaneHead=0;swimlaneBody=0;strokeColor=inherit;top=0;left=0;bottom=0;right=0;collapsible=0;dropTarget=0;fillColor=none;points=[[0,0.5],[1,0.5]];portConstraint=eastwest;fontSize=16;" vertex="1" parent="32F2rg8Qppw3--IaGYli-76">
          <mxGeometry y="30" width="130" height="23" as="geometry" />
        </mxCell>
        <mxCell id="32F2rg8Qppw3--IaGYli-78" value="user_id" style="shape=partialRectangle;html=1;whiteSpace=wrap;connectable=0;strokeColor=inherit;overflow=hidden;fillColor=none;top=0;left=0;bottom=0;right=0;pointerEvents=1;fontSize=16;align=left;" vertex="1" parent="32F2rg8Qppw3--IaGYli-77">
          <mxGeometry width="130" height="23" as="geometry">
            <mxRectangle width="130" height="23" as="alternateBounds" />
          </mxGeometry>
        </mxCell>
        <mxCell id="32F2rg8Qppw3--IaGYli-79" value="" style="shape=tableRow;horizontal=0;startSize=0;swimlaneHead=0;swimlaneBody=0;strokeColor=inherit;top=0;left=0;bottom=0;right=0;collapsible=0;dropTarget=0;fillColor=none;points=[[0,0.5],[1,0.5]];portConstraint=eastwest;fontSize=16;" vertex="1" parent="32F2rg8Qppw3--IaGYli-76">
          <mxGeometry y="53" width="130" height="22" as="geometry" />
        </mxCell>
        <mxCell id="32F2rg8Qppw3--IaGYli-80" value="user_id_friend" style="shape=partialRectangle;html=1;whiteSpace=wrap;connectable=0;strokeColor=inherit;overflow=hidden;fillColor=none;top=0;left=0;bottom=0;right=0;pointerEvents=1;fontSize=16;align=left;" vertex="1" parent="32F2rg8Qppw3--IaGYli-79">
          <mxGeometry width="130" height="22" as="geometry">
            <mxRectangle width="130" height="22" as="alternateBounds" />
          </mxGeometry>
        </mxCell>
        <mxCell id="32F2rg8Qppw3--IaGYli-81" style="shape=tableRow;horizontal=0;startSize=0;swimlaneHead=0;swimlaneBody=0;strokeColor=inherit;top=0;left=0;bottom=0;right=0;collapsible=0;dropTarget=0;fillColor=none;points=[[0,0.5],[1,0.5]];portConstraint=eastwest;fontSize=16;" vertex="1" parent="32F2rg8Qppw3--IaGYli-76">
          <mxGeometry y="75" width="130" height="23" as="geometry" />
        </mxCell>
        <mxCell id="32F2rg8Qppw3--IaGYli-82" value="day_time" style="shape=partialRectangle;html=1;whiteSpace=wrap;connectable=0;strokeColor=inherit;overflow=hidden;fillColor=none;top=0;left=0;bottom=0;right=0;pointerEvents=1;fontSize=16;align=left;" vertex="1" parent="32F2rg8Qppw3--IaGYli-81">
          <mxGeometry width="130" height="23" as="geometry">
            <mxRectangle width="130" height="23" as="alternateBounds" />
          </mxGeometry>
        </mxCell>
        <object label="photo" id="32F2rg8Qppw3--IaGYli-84">
          <mxCell style="shape=table;startSize=30;container=1;collapsible=0;childLayout=tableLayout;strokeColor=#6c8ebf;fontSize=16;columnLines=1;points=[[0,0,0,0,0],[0,0.25,0,0,0],[0,0.5,0,0,0],[0,0.75,0,0,0],[0,1,0,0,0],[0.25,0,0,0,0],[0.25,1,0,0,0],[0.5,0,0,0,0],[0.5,1,0,0,0],[0.75,0,0,0,0],[0.75,1,0,0,0],[1,0,0,0,0],[1,0.25,0,0,0],[1,0.5,0,0,0],[1,0.75,0,0,0],[1,1,0,0,0]];swimlaneLine=1;shadow=0;fillColor=#dae8fc;" vertex="1" parent="1">
            <mxGeometry x="540" y="36" width="130" height="144" as="geometry" />
          </mxCell>
        </object>
        <mxCell id="32F2rg8Qppw3--IaGYli-85" value="" style="shape=tableRow;horizontal=0;startSize=0;swimlaneHead=0;swimlaneBody=0;strokeColor=inherit;top=0;left=0;bottom=0;right=0;collapsible=0;dropTarget=0;fillColor=none;points=[[0,0.5],[1,0.5]];portConstraint=eastwest;fontSize=16;" vertex="1" parent="32F2rg8Qppw3--IaGYli-84">
          <mxGeometry y="30" width="130" height="23" as="geometry" />
        </mxCell>
        <mxCell id="32F2rg8Qppw3--IaGYli-86" value="photo_id" style="shape=partialRectangle;html=1;whiteSpace=wrap;connectable=0;strokeColor=inherit;overflow=hidden;fillColor=none;top=0;left=0;bottom=0;right=0;pointerEvents=1;fontSize=16;align=left;" vertex="1" parent="32F2rg8Qppw3--IaGYli-85">
          <mxGeometry width="130" height="23" as="geometry">
            <mxRectangle width="130" height="23" as="alternateBounds" />
          </mxGeometry>
        </mxCell>
        <mxCell id="32F2rg8Qppw3--IaGYli-87" value="" style="shape=tableRow;horizontal=0;startSize=0;swimlaneHead=0;swimlaneBody=0;strokeColor=inherit;top=0;left=0;bottom=0;right=0;collapsible=0;dropTarget=0;fillColor=none;points=[[0,0.5],[1,0.5]];portConstraint=eastwest;fontSize=16;" vertex="1" parent="32F2rg8Qppw3--IaGYli-84">
          <mxGeometry y="53" width="130" height="22" as="geometry" />
        </mxCell>
        <mxCell id="32F2rg8Qppw3--IaGYli-88" value="file_name" style="shape=partialRectangle;html=1;whiteSpace=wrap;connectable=0;strokeColor=inherit;overflow=hidden;fillColor=none;top=0;left=0;bottom=0;right=0;pointerEvents=1;fontSize=16;align=left;" vertex="1" parent="32F2rg8Qppw3--IaGYli-87">
          <mxGeometry width="130" height="22" as="geometry">
            <mxRectangle width="130" height="22" as="alternateBounds" />
          </mxGeometry>
        </mxCell>
        <mxCell id="32F2rg8Qppw3--IaGYli-89" style="shape=tableRow;horizontal=0;startSize=0;swimlaneHead=0;swimlaneBody=0;strokeColor=inherit;top=0;left=0;bottom=0;right=0;collapsible=0;dropTarget=0;fillColor=none;points=[[0,0.5],[1,0.5]];portConstraint=eastwest;fontSize=16;" vertex="1" parent="32F2rg8Qppw3--IaGYli-84">
          <mxGeometry y="75" width="130" height="23" as="geometry" />
        </mxCell>
        <mxCell id="32F2rg8Qppw3--IaGYli-90" value="day_time" style="shape=partialRectangle;html=1;whiteSpace=wrap;connectable=0;strokeColor=inherit;overflow=hidden;fillColor=none;top=0;left=0;bottom=0;right=0;pointerEvents=1;fontSize=16;align=left;" vertex="1" parent="32F2rg8Qppw3--IaGYli-89">
          <mxGeometry width="130" height="23" as="geometry">
            <mxRectangle width="130" height="23" as="alternateBounds" />
          </mxGeometry>
        </mxCell>
        <mxCell id="32F2rg8Qppw3--IaGYli-91" style="shape=tableRow;horizontal=0;startSize=0;swimlaneHead=0;swimlaneBody=0;strokeColor=inherit;top=0;left=0;bottom=0;right=0;collapsible=0;dropTarget=0;fillColor=none;points=[[0,0.5],[1,0.5]];portConstraint=eastwest;fontSize=16;" vertex="1" parent="32F2rg8Qppw3--IaGYli-84">
          <mxGeometry y="98" width="130" height="23" as="geometry" />
        </mxCell>
        <mxCell id="32F2rg8Qppw3--IaGYli-92" value="sity_id" style="shape=partialRectangle;html=1;whiteSpace=wrap;connectable=0;strokeColor=inherit;overflow=hidden;fillColor=none;top=0;left=0;bottom=0;right=0;pointerEvents=1;fontSize=16;align=left;" vertex="1" parent="32F2rg8Qppw3--IaGYli-91">
          <mxGeometry width="130" height="23" as="geometry">
            <mxRectangle width="130" height="23" as="alternateBounds" />
          </mxGeometry>
        </mxCell>
        <mxCell id="32F2rg8Qppw3--IaGYli-106" style="shape=tableRow;horizontal=0;startSize=0;swimlaneHead=0;swimlaneBody=0;strokeColor=inherit;top=0;left=0;bottom=0;right=0;collapsible=0;dropTarget=0;fillColor=none;points=[[0,0.5],[1,0.5]];portConstraint=eastwest;fontSize=16;" vertex="1" parent="32F2rg8Qppw3--IaGYli-84">
          <mxGeometry y="121" width="130" height="23" as="geometry" />
        </mxCell>
        <mxCell id="32F2rg8Qppw3--IaGYli-107" value="mark_user_id" style="shape=partialRectangle;html=1;whiteSpace=wrap;connectable=0;strokeColor=inherit;overflow=hidden;fillColor=none;top=0;left=0;bottom=0;right=0;pointerEvents=1;fontSize=16;align=left;" vertex="1" parent="32F2rg8Qppw3--IaGYli-106">
          <mxGeometry width="130" height="23" as="geometry">
            <mxRectangle width="130" height="23" as="alternateBounds" />
          </mxGeometry>
        </mxCell>
        <object label="shhool" id="32F2rg8Qppw3--IaGYli-94">
          <mxCell style="shape=table;startSize=30;container=1;collapsible=0;childLayout=tableLayout;strokeColor=#6c8ebf;fontSize=16;columnLines=1;points=[[0,0,0,0,0],[0,0.25,0,0,0],[0,0.5,0,0,0],[0,0.75,0,0,0],[0,1,0,0,0],[0.25,0,0,0,0],[0.25,1,0,0,0],[0.5,0,0,0,0],[0.5,1,0,0,0],[0.75,0,0,0,0],[0.75,1,0,0,0],[1,0,0,0,0],[1,0.25,0,0,0],[1,0.5,0,0,0],[1,0.75,0,0,0],[1,1,0,0,0]];swimlaneLine=1;shadow=0;flipH=0;fillColor=#dae8fc;" vertex="1" parent="1">
            <mxGeometry x="790" y="-160" width="130" height="98" as="geometry" />
          </mxCell>
        </object>
        <mxCell id="32F2rg8Qppw3--IaGYli-95" value="" style="shape=tableRow;horizontal=0;startSize=0;swimlaneHead=0;swimlaneBody=0;strokeColor=inherit;top=0;left=0;bottom=0;right=0;collapsible=0;dropTarget=0;fillColor=none;points=[[0,0.5],[1,0.5]];portConstraint=eastwest;fontSize=16;" vertex="1" parent="32F2rg8Qppw3--IaGYli-94">
          <mxGeometry y="30" width="130" height="23" as="geometry" />
        </mxCell>
        <mxCell id="32F2rg8Qppw3--IaGYli-96" value="shcool_id" style="shape=partialRectangle;html=1;whiteSpace=wrap;connectable=0;strokeColor=inherit;overflow=hidden;fillColor=none;top=0;left=0;bottom=0;right=0;pointerEvents=1;fontSize=16;align=left;" vertex="1" parent="32F2rg8Qppw3--IaGYli-95">
          <mxGeometry width="130" height="23" as="geometry">
            <mxRectangle width="130" height="23" as="alternateBounds" />
          </mxGeometry>
        </mxCell>
        <mxCell id="32F2rg8Qppw3--IaGYli-97" value="" style="shape=tableRow;horizontal=0;startSize=0;swimlaneHead=0;swimlaneBody=0;strokeColor=inherit;top=0;left=0;bottom=0;right=0;collapsible=0;dropTarget=0;fillColor=none;points=[[0,0.5],[1,0.5]];portConstraint=eastwest;fontSize=16;" vertex="1" parent="32F2rg8Qppw3--IaGYli-94">
          <mxGeometry y="53" width="130" height="22" as="geometry" />
        </mxCell>
        <mxCell id="32F2rg8Qppw3--IaGYli-98" value="name" style="shape=partialRectangle;html=1;whiteSpace=wrap;connectable=0;strokeColor=inherit;overflow=hidden;fillColor=none;top=0;left=0;bottom=0;right=0;pointerEvents=1;fontSize=16;align=left;" vertex="1" parent="32F2rg8Qppw3--IaGYli-97">
          <mxGeometry width="130" height="22" as="geometry">
            <mxRectangle width="130" height="22" as="alternateBounds" />
          </mxGeometry>
        </mxCell>
        <mxCell id="32F2rg8Qppw3--IaGYli-99" style="shape=tableRow;horizontal=0;startSize=0;swimlaneHead=0;swimlaneBody=0;strokeColor=inherit;top=0;left=0;bottom=0;right=0;collapsible=0;dropTarget=0;fillColor=none;points=[[0,0.5],[1,0.5]];portConstraint=eastwest;fontSize=16;" vertex="1" parent="32F2rg8Qppw3--IaGYli-94">
          <mxGeometry y="75" width="130" height="23" as="geometry" />
        </mxCell>
        <mxCell id="32F2rg8Qppw3--IaGYli-100" value="sity_id" style="shape=partialRectangle;html=1;whiteSpace=wrap;connectable=0;strokeColor=inherit;overflow=hidden;fillColor=none;top=0;left=0;bottom=0;right=0;pointerEvents=1;fontSize=16;align=left;" vertex="1" parent="32F2rg8Qppw3--IaGYli-99">
          <mxGeometry width="130" height="23" as="geometry">
            <mxRectangle width="130" height="23" as="alternateBounds" />
          </mxGeometry>
        </mxCell>
        <mxCell id="32F2rg8Qppw3--IaGYli-105" style="edgeStyle=orthogonalEdgeStyle;rounded=0;orthogonalLoop=1;jettySize=auto;html=1;exitX=0;exitY=0.5;exitDx=0;exitDy=0;fontFamily=Helvetica;fontSize=16;fontColor=default;startSize=30;startArrow=baseDash;startFill=0;" edge="1" parent="1" source="32F2rg8Qppw3--IaGYli-99" target="32F2rg8Qppw3--IaGYli-66">
          <mxGeometry relative="1" as="geometry" />
        </mxCell>
        <object label="family_status" id="32F2rg8Qppw3--IaGYli-109">
          <mxCell style="shape=table;startSize=30;container=1;collapsible=0;childLayout=tableLayout;strokeColor=#6c8ebf;fontSize=16;columnLines=1;points=[[0,0,0,0,0],[0,0.25,0,0,0],[0,0.5,0,0,0],[0,0.75,0,0,0],[0,1,0,0,0],[0.25,0,0,0,0],[0.25,1,0,0,0],[0.5,0,0,0,0],[0.5,1,0,0,0],[0.75,0,0,0,0],[0.75,1,0,0,0],[1,0,0,0,0],[1,0.25,0,0,0],[1,0.5,0,0,0],[1,0.75,0,0,0],[1,1,0,0,0]];swimlaneLine=1;shadow=0;flipV=0;fillColor=#dae8fc;" vertex="1" parent="1">
            <mxGeometry x="290" y="119" width="130" height="75" as="geometry" />
          </mxCell>
        </object>
        <mxCell id="32F2rg8Qppw3--IaGYli-110" value="" style="shape=tableRow;horizontal=0;startSize=0;swimlaneHead=0;swimlaneBody=0;strokeColor=inherit;top=0;left=0;bottom=0;right=0;collapsible=0;dropTarget=0;fillColor=none;points=[[0,0.5],[1,0.5]];portConstraint=eastwest;fontSize=16;" vertex="1" parent="32F2rg8Qppw3--IaGYli-109">
          <mxGeometry y="30" width="130" height="23" as="geometry" />
        </mxCell>
        <mxCell id="32F2rg8Qppw3--IaGYli-111" value="family_staus_id" style="shape=partialRectangle;html=1;whiteSpace=wrap;connectable=0;strokeColor=inherit;overflow=hidden;fillColor=none;top=0;left=0;bottom=0;right=0;pointerEvents=1;fontSize=16;align=left;" vertex="1" parent="32F2rg8Qppw3--IaGYli-110">
          <mxGeometry width="130" height="23" as="geometry">
            <mxRectangle width="130" height="23" as="alternateBounds" />
          </mxGeometry>
        </mxCell>
        <mxCell id="32F2rg8Qppw3--IaGYli-112" value="" style="shape=tableRow;horizontal=0;startSize=0;swimlaneHead=0;swimlaneBody=0;strokeColor=inherit;top=0;left=0;bottom=0;right=0;collapsible=0;dropTarget=0;fillColor=none;points=[[0,0.5],[1,0.5]];portConstraint=eastwest;fontSize=16;" vertex="1" parent="32F2rg8Qppw3--IaGYli-109">
          <mxGeometry y="53" width="130" height="22" as="geometry" />
        </mxCell>
        <mxCell id="32F2rg8Qppw3--IaGYli-113" value="name" style="shape=partialRectangle;html=1;whiteSpace=wrap;connectable=0;strokeColor=inherit;overflow=hidden;fillColor=none;top=0;left=0;bottom=0;right=0;pointerEvents=1;fontSize=16;align=left;" vertex="1" parent="32F2rg8Qppw3--IaGYli-112">
          <mxGeometry width="130" height="22" as="geometry">
            <mxRectangle width="130" height="22" as="alternateBounds" />
          </mxGeometry>
        </mxCell>
        <object label="message" id="32F2rg8Qppw3--IaGYli-132">
          <mxCell style="shape=table;startSize=30;container=1;collapsible=0;childLayout=tableLayout;strokeColor=#6c8ebf;fontSize=16;columnLines=1;points=[[0,0,0,0,0],[0,0.25,0,0,0],[0,0.5,0,0,0],[0,0.75,0,0,0],[0,1,0,0,0],[0.25,0,0,0,0],[0.25,1,0,0,0],[0.5,0,0,0,0],[0.5,1,0,0,0],[0.75,0,0,0,0],[0.75,1,0,0,0],[1,0,0,0,0],[1,0.25,0,0,0],[1,0.5,0,0,0],[1,0.75,0,0,0],[1,1,0,0,0]];swimlaneLine=1;shadow=0;flipV=0;fillColor=#dae8fc;" vertex="1" parent="1">
            <mxGeometry x="290" y="241" width="130" height="98" as="geometry" />
          </mxCell>
        </object>
        <mxCell id="32F2rg8Qppw3--IaGYli-133" style="shape=tableRow;horizontal=0;startSize=0;swimlaneHead=0;swimlaneBody=0;strokeColor=inherit;top=0;left=0;bottom=0;right=0;collapsible=0;dropTarget=0;fillColor=none;points=[[0,0.5],[1,0.5]];portConstraint=eastwest;fontSize=16;" vertex="1" parent="32F2rg8Qppw3--IaGYli-132">
          <mxGeometry y="30" width="130" height="23" as="geometry" />
        </mxCell>
        <mxCell id="32F2rg8Qppw3--IaGYli-134" value="chat_id" style="shape=partialRectangle;html=1;whiteSpace=wrap;connectable=0;strokeColor=inherit;overflow=hidden;fillColor=none;top=0;left=0;bottom=0;right=0;pointerEvents=1;fontSize=16;align=left;" vertex="1" parent="32F2rg8Qppw3--IaGYli-133">
          <mxGeometry width="130" height="23" as="geometry">
            <mxRectangle width="130" height="23" as="alternateBounds" />
          </mxGeometry>
        </mxCell>
        <mxCell id="32F2rg8Qppw3--IaGYli-135" value="" style="shape=tableRow;horizontal=0;startSize=0;swimlaneHead=0;swimlaneBody=0;strokeColor=inherit;top=0;left=0;bottom=0;right=0;collapsible=0;dropTarget=0;fillColor=none;points=[[0,0.5],[1,0.5]];portConstraint=eastwest;fontSize=16;" vertex="1" parent="32F2rg8Qppw3--IaGYli-132">
          <mxGeometry y="53" width="130" height="23" as="geometry" />
        </mxCell>
        <mxCell id="32F2rg8Qppw3--IaGYli-136" value="text" style="shape=partialRectangle;html=1;whiteSpace=wrap;connectable=0;strokeColor=inherit;overflow=hidden;fillColor=none;top=0;left=0;bottom=0;right=0;pointerEvents=1;fontSize=16;align=left;" vertex="1" parent="32F2rg8Qppw3--IaGYli-135">
          <mxGeometry width="130" height="23" as="geometry">
            <mxRectangle width="130" height="23" as="alternateBounds" />
          </mxGeometry>
        </mxCell>
        <mxCell id="32F2rg8Qppw3--IaGYli-137" value="" style="shape=tableRow;horizontal=0;startSize=0;swimlaneHead=0;swimlaneBody=0;strokeColor=inherit;top=0;left=0;bottom=0;right=0;collapsible=0;dropTarget=0;fillColor=none;points=[[0,0.5],[1,0.5]];portConstraint=eastwest;fontSize=16;" vertex="1" parent="32F2rg8Qppw3--IaGYli-132">
          <mxGeometry y="76" width="130" height="22" as="geometry" />
        </mxCell>
        <mxCell id="32F2rg8Qppw3--IaGYli-138" value="day_time" style="shape=partialRectangle;html=1;whiteSpace=wrap;connectable=0;strokeColor=inherit;overflow=hidden;fillColor=none;top=0;left=0;bottom=0;right=0;pointerEvents=1;fontSize=16;align=left;" vertex="1" parent="32F2rg8Qppw3--IaGYli-137">
          <mxGeometry width="130" height="22" as="geometry">
            <mxRectangle width="130" height="22" as="alternateBounds" />
          </mxGeometry>
        </mxCell>
        <mxCell id="32F2rg8Qppw3--IaGYli-139" style="edgeStyle=orthogonalEdgeStyle;rounded=0;orthogonalLoop=1;jettySize=auto;html=1;exitX=1;exitY=0.5;exitDx=0;exitDy=0;fontFamily=Helvetica;fontSize=16;fontColor=default;startSize=30;startArrow=baseDash;startFill=0;" edge="1" parent="1" source="32F2rg8Qppw3--IaGYli-128" target="32F2rg8Qppw3--IaGYli-133">
          <mxGeometry relative="1" as="geometry" />
        </mxCell>
        <mxCell id="32F2rg8Qppw3--IaGYli-152" style="edgeStyle=orthogonalEdgeStyle;rounded=0;orthogonalLoop=1;jettySize=auto;html=1;entryX=0;entryY=0.5;entryDx=0;entryDy=0;fontFamily=Helvetica;fontSize=16;fontColor=default;startSize=30;startArrow=baseDash;startFill=0;" edge="1" parent="1" source="32F2rg8Qppw3--IaGYli-147" target="TUfsJCi0jF2Ck-yVqTo3-20">
          <mxGeometry relative="1" as="geometry" />
        </mxCell>
        <object label="like" id="32F2rg8Qppw3--IaGYli-142">
          <mxCell style="shape=table;startSize=30;container=1;collapsible=0;childLayout=tableLayout;strokeColor=#6c8ebf;fontSize=16;columnLines=1;points=[[0,0,0,0,0],[0,0.25,0,0,0],[0,0.5,0,0,0],[0,0.75,0,0,0],[0,1,0,0,0],[0.25,0,0,0,0],[0.25,1,0,0,0],[0.5,0,0,0,0],[0.5,1,0,0,0],[0.75,0,0,0,0],[0.75,1,0,0,0],[1,0,0,0,0],[1,0.25,0,0,0],[1,0.5,0,0,0],[1,0.75,0,0,0],[1,1,0,0,0]];swimlaneLine=1;shadow=0;fillColor=#dae8fc;" vertex="1" parent="1">
            <mxGeometry x="540" y="253" width="130" height="124" as="geometry" />
          </mxCell>
        </object>
        <mxCell id="32F2rg8Qppw3--IaGYli-143" style="shape=tableRow;horizontal=0;startSize=0;swimlaneHead=0;swimlaneBody=0;strokeColor=inherit;top=0;left=0;bottom=0;right=0;collapsible=0;dropTarget=0;fillColor=none;points=[[0,0.5],[1,0.5]];portConstraint=eastwest;fontSize=16;" vertex="1" parent="32F2rg8Qppw3--IaGYli-142">
          <mxGeometry y="30" width="130" height="23" as="geometry" />
        </mxCell>
        <mxCell id="32F2rg8Qppw3--IaGYli-144" value="like_id" style="shape=partialRectangle;html=1;whiteSpace=wrap;connectable=0;strokeColor=inherit;overflow=hidden;fillColor=none;top=0;left=0;bottom=0;right=0;pointerEvents=1;fontSize=16;align=left;" vertex="1" parent="32F2rg8Qppw3--IaGYli-143">
          <mxGeometry width="130" height="23" as="geometry">
            <mxRectangle width="130" height="23" as="alternateBounds" />
          </mxGeometry>
        </mxCell>
        <mxCell id="32F2rg8Qppw3--IaGYli-145" value="" style="shape=tableRow;horizontal=0;startSize=0;swimlaneHead=0;swimlaneBody=0;strokeColor=inherit;top=0;left=0;bottom=0;right=0;collapsible=0;dropTarget=0;fillColor=none;points=[[0,0.5],[1,0.5]];portConstraint=eastwest;fontSize=16;" vertex="1" parent="32F2rg8Qppw3--IaGYli-142">
          <mxGeometry y="53" width="130" height="27" as="geometry" />
        </mxCell>
        <mxCell id="32F2rg8Qppw3--IaGYli-146" value="photo_id" style="shape=partialRectangle;html=1;whiteSpace=wrap;connectable=0;strokeColor=inherit;overflow=hidden;fillColor=none;top=0;left=0;bottom=0;right=0;pointerEvents=1;fontSize=16;align=left;" vertex="1" parent="32F2rg8Qppw3--IaGYli-145">
          <mxGeometry width="130" height="27" as="geometry">
            <mxRectangle width="130" height="27" as="alternateBounds" />
          </mxGeometry>
        </mxCell>
        <mxCell id="32F2rg8Qppw3--IaGYli-147" value="" style="shape=tableRow;horizontal=0;startSize=0;swimlaneHead=0;swimlaneBody=0;strokeColor=inherit;top=0;left=0;bottom=0;right=0;collapsible=0;dropTarget=0;fillColor=none;points=[[0,0.5],[1,0.5]];portConstraint=eastwest;fontSize=16;" vertex="1" parent="32F2rg8Qppw3--IaGYli-142">
          <mxGeometry y="80" width="130" height="22" as="geometry" />
        </mxCell>
        <mxCell id="32F2rg8Qppw3--IaGYli-148" value="user_id" style="shape=partialRectangle;html=1;whiteSpace=wrap;connectable=0;strokeColor=inherit;overflow=hidden;fillColor=none;top=0;left=0;bottom=0;right=0;pointerEvents=1;fontSize=16;align=left;" vertex="1" parent="32F2rg8Qppw3--IaGYli-147">
          <mxGeometry width="130" height="22" as="geometry">
            <mxRectangle width="130" height="22" as="alternateBounds" />
          </mxGeometry>
        </mxCell>
        <mxCell id="32F2rg8Qppw3--IaGYli-149" style="shape=tableRow;horizontal=0;startSize=0;swimlaneHead=0;swimlaneBody=0;strokeColor=inherit;top=0;left=0;bottom=0;right=0;collapsible=0;dropTarget=0;fillColor=none;points=[[0,0.5],[1,0.5]];portConstraint=eastwest;fontSize=16;" vertex="1" parent="32F2rg8Qppw3--IaGYli-142">
          <mxGeometry y="102" width="130" height="22" as="geometry" />
        </mxCell>
        <mxCell id="32F2rg8Qppw3--IaGYli-150" value="day_time" style="shape=partialRectangle;html=1;whiteSpace=wrap;connectable=0;strokeColor=inherit;overflow=hidden;fillColor=none;top=0;left=0;bottom=0;right=0;pointerEvents=1;fontSize=16;align=left;" vertex="1" parent="32F2rg8Qppw3--IaGYli-149">
          <mxGeometry width="130" height="22" as="geometry">
            <mxRectangle width="130" height="22" as="alternateBounds" />
          </mxGeometry>
        </mxCell>
        <object label="chat" id="32F2rg8Qppw3--IaGYli-121">
          <mxCell style="shape=table;startSize=30;container=1;collapsible=0;childLayout=tableLayout;strokeColor=#6c8ebf;fontSize=16;columnLines=1;points=[[0,0,0,0,0],[0,0.25,0,0,0],[0,0.5,0,0,0],[0,0.75,0,0,0],[0,1,0,0,0],[0.25,0,0,0,0],[0.25,1,0,0,0],[0.5,0,0,0,0],[0.5,1,0,0,0],[0.75,0,0,0,0],[0.75,1,0,0,0],[1,0,0,0,0],[1,0.25,0,0,0],[1,0.5,0,0,0],[1,0.75,0,0,0],[1,1,0,0,0]];swimlaneLine=1;shadow=0;flipV=0;fillColor=#dae8fc;" vertex="1" parent="1">
            <mxGeometry x="290" y="-26" width="130" height="98" as="geometry" />
          </mxCell>
        </object>
        <mxCell id="32F2rg8Qppw3--IaGYli-128" style="shape=tableRow;horizontal=0;startSize=0;swimlaneHead=0;swimlaneBody=0;strokeColor=inherit;top=0;left=0;bottom=0;right=0;collapsible=0;dropTarget=0;fillColor=none;points=[[0,0.5],[1,0.5]];portConstraint=eastwest;fontSize=16;" vertex="1" parent="32F2rg8Qppw3--IaGYli-121">
          <mxGeometry y="30" width="130" height="23" as="geometry" />
        </mxCell>
        <mxCell id="32F2rg8Qppw3--IaGYli-129" value="chat_id" style="shape=partialRectangle;html=1;whiteSpace=wrap;connectable=0;strokeColor=inherit;overflow=hidden;fillColor=none;top=0;left=0;bottom=0;right=0;pointerEvents=1;fontSize=16;align=left;" vertex="1" parent="32F2rg8Qppw3--IaGYli-128">
          <mxGeometry width="130" height="23" as="geometry">
            <mxRectangle width="130" height="23" as="alternateBounds" />
          </mxGeometry>
        </mxCell>
        <mxCell id="32F2rg8Qppw3--IaGYli-122" value="" style="shape=tableRow;horizontal=0;startSize=0;swimlaneHead=0;swimlaneBody=0;strokeColor=inherit;top=0;left=0;bottom=0;right=0;collapsible=0;dropTarget=0;fillColor=none;points=[[0,0.5],[1,0.5]];portConstraint=eastwest;fontSize=16;" vertex="1" parent="32F2rg8Qppw3--IaGYli-121">
          <mxGeometry y="53" width="130" height="23" as="geometry" />
        </mxCell>
        <mxCell id="32F2rg8Qppw3--IaGYli-123" value="user_id_first" style="shape=partialRectangle;html=1;whiteSpace=wrap;connectable=0;strokeColor=inherit;overflow=hidden;fillColor=none;top=0;left=0;bottom=0;right=0;pointerEvents=1;fontSize=16;align=left;" vertex="1" parent="32F2rg8Qppw3--IaGYli-122">
          <mxGeometry width="130" height="23" as="geometry">
            <mxRectangle width="130" height="23" as="alternateBounds" />
          </mxGeometry>
        </mxCell>
        <mxCell id="32F2rg8Qppw3--IaGYli-124" value="" style="shape=tableRow;horizontal=0;startSize=0;swimlaneHead=0;swimlaneBody=0;strokeColor=inherit;top=0;left=0;bottom=0;right=0;collapsible=0;dropTarget=0;fillColor=none;points=[[0,0.5],[1,0.5]];portConstraint=eastwest;fontSize=16;" vertex="1" parent="32F2rg8Qppw3--IaGYli-121">
          <mxGeometry y="76" width="130" height="22" as="geometry" />
        </mxCell>
        <mxCell id="32F2rg8Qppw3--IaGYli-125" value="user_id_second" style="shape=partialRectangle;html=1;whiteSpace=wrap;connectable=0;strokeColor=inherit;overflow=hidden;fillColor=none;top=0;left=0;bottom=0;right=0;pointerEvents=1;fontSize=16;align=left;" vertex="1" parent="32F2rg8Qppw3--IaGYli-124">
          <mxGeometry width="130" height="22" as="geometry">
            <mxRectangle width="130" height="22" as="alternateBounds" />
          </mxGeometry>
        </mxCell>
        <mxCell id="32F2rg8Qppw3--IaGYli-155" style="edgeStyle=orthogonalEdgeStyle;rounded=0;orthogonalLoop=1;jettySize=auto;html=1;entryX=1;entryY=0.5;entryDx=0;entryDy=0;fontFamily=Helvetica;fontSize=16;fontColor=default;startSize=30;startArrow=baseDash;startFill=0;" edge="1" parent="1" source="32F2rg8Qppw3--IaGYli-145" target="32F2rg8Qppw3--IaGYli-85">
          <mxGeometry relative="1" as="geometry">
            <Array as="points">
              <mxPoint x="690" y="319.5" />
              <mxPoint x="690" y="78" />
            </Array>
          </mxGeometry>
        </mxCell>
        <mxCell id="32F2rg8Qppw3--IaGYli-156" style="edgeStyle=orthogonalEdgeStyle;rounded=0;orthogonalLoop=1;jettySize=auto;html=1;entryX=1;entryY=0.5;entryDx=0;entryDy=0;fontFamily=Helvetica;fontSize=16;fontColor=default;startSize=30;startArrow=baseDash;startFill=0;" edge="1" parent="1" source="32F2rg8Qppw3--IaGYli-19" target="32F2rg8Qppw3--IaGYli-66">
          <mxGeometry relative="1" as="geometry" />
        </mxCell>
        <mxCell id="32F2rg8Qppw3--IaGYli-158" style="edgeStyle=orthogonalEdgeStyle;rounded=0;orthogonalLoop=1;jettySize=auto;html=1;fontFamily=Helvetica;fontSize=16;fontColor=default;startSize=30;startArrow=baseDash;startFill=0;" edge="1" parent="1" source="32F2rg8Qppw3--IaGYli-6" target="32F2rg8Qppw3--IaGYli-66">
          <mxGeometry relative="1" as="geometry">
            <Array as="points">
              <mxPoint x="430" y="-28" />
              <mxPoint x="430" y="-118" />
            </Array>
          </mxGeometry>
        </mxCell>
        <mxCell id="32F2rg8Qppw3--IaGYli-159" style="edgeStyle=orthogonalEdgeStyle;rounded=0;orthogonalLoop=1;jettySize=auto;html=1;fontFamily=Helvetica;fontSize=16;fontColor=default;startSize=30;startArrow=baseDash;startFill=0;" edge="1" parent="1" source="32F2rg8Qppw3--IaGYli-8" target="32F2rg8Qppw3--IaGYli-15">
          <mxGeometry relative="1" as="geometry">
            <Array as="points">
              <mxPoint x="230" y="-6" />
              <mxPoint x="230" y="390" />
              <mxPoint x="710" y="390" />
              <mxPoint x="710" y="52" />
            </Array>
          </mxGeometry>
        </mxCell>
        <mxCell id="32F2rg8Qppw3--IaGYli-160" style="edgeStyle=orthogonalEdgeStyle;rounded=0;orthogonalLoop=1;jettySize=auto;html=1;fontFamily=Helvetica;fontSize=16;fontColor=default;startSize=30;startArrow=baseDash;startFill=0;" edge="1" parent="1" source="32F2rg8Qppw3--IaGYli-10" target="32F2rg8Qppw3--IaGYli-95">
          <mxGeometry relative="1" as="geometry">
            <Array as="points">
              <mxPoint x="210" y="17" />
              <mxPoint x="210" y="410" />
              <mxPoint x="980" y="410" />
              <mxPoint x="980" y="-118" />
            </Array>
          </mxGeometry>
        </mxCell>
        <mxCell id="32F2rg8Qppw3--IaGYli-161" style="edgeStyle=orthogonalEdgeStyle;rounded=0;orthogonalLoop=1;jettySize=auto;html=1;entryX=0;entryY=0.5;entryDx=0;entryDy=0;fontFamily=Helvetica;fontSize=16;fontColor=default;startSize=30;startArrow=baseDash;startFill=0;" edge="1" parent="1" source="32F2rg8Qppw3--IaGYli-103" target="32F2rg8Qppw3--IaGYli-110">
          <mxGeometry relative="1" as="geometry">
            <Array as="points">
              <mxPoint x="260" y="99" />
              <mxPoint x="260" y="161" />
            </Array>
          </mxGeometry>
        </mxCell>
        <mxCell id="32F2rg8Qppw3--IaGYli-162" style="edgeStyle=orthogonalEdgeStyle;rounded=0;orthogonalLoop=1;jettySize=auto;html=1;fontFamily=Helvetica;fontSize=16;fontColor=default;startSize=30;" edge="1" parent="1" source="32F2rg8Qppw3--IaGYli-77" target="TUfsJCi0jF2Ck-yVqTo3-20">
          <mxGeometry relative="1" as="geometry">
            <Array as="points" />
          </mxGeometry>
        </mxCell>
        <mxCell id="32F2rg8Qppw3--IaGYli-163" style="edgeStyle=orthogonalEdgeStyle;rounded=0;orthogonalLoop=1;jettySize=auto;html=1;fontFamily=Helvetica;fontSize=16;fontColor=default;startSize=30;startArrow=baseDash;startFill=0;" edge="1" parent="1" source="32F2rg8Qppw3--IaGYli-122" target="TUfsJCi0jF2Ck-yVqTo3-20">
          <mxGeometry relative="1" as="geometry">
            <Array as="points">
              <mxPoint x="260" y="39" />
              <mxPoint x="260" y="-118" />
            </Array>
          </mxGeometry>
        </mxCell>
        <mxCell id="32F2rg8Qppw3--IaGYli-164" style="edgeStyle=orthogonalEdgeStyle;rounded=0;orthogonalLoop=1;jettySize=auto;html=1;fontFamily=Helvetica;fontSize=16;fontColor=default;startSize=30;startArrow=baseDash;startFill=0;" edge="1" parent="1" source="32F2rg8Qppw3--IaGYli-106" target="TUfsJCi0jF2Ck-yVqTo3-20">
          <mxGeometry relative="1" as="geometry">
            <Array as="points">
              <mxPoint x="530" y="169" />
              <mxPoint x="530" y="220" />
              <mxPoint x="20" y="220" />
              <mxPoint x="20" y="-118" />
            </Array>
          </mxGeometry>
        </mxCell>
      </root>
    </mxGraphModel>
  </diagram>
</mxfile>
